<svg width="162" height="47" viewBox="0 0 162 47" fill="none" xmlns="http://www.w3.org/2000/svg">
<path d="M26.3722 12.7596H2.70975C1.2132 12.7596 0 13.9728 0 15.4694V44.2903C0 45.7868 1.2132 47 2.70975 47H26.3722C27.8688 47 29.082 45.7868 29.082 44.2903V15.4694C29.082 13.9728 27.8688 12.7596 26.3722 12.7596Z" fill="#1E88E5"/>
<path d="M26.0647 42.6017H23.4304L6.46977 21.9971V42.6017H3.40607V16.6531H6.04039L23.0068 37.4897V16.6531H26.0647V42.6017Z" fill="white"/>
<path d="M45.1548 23.8191C46.3663 24.2872 47.4728 24.9914 48.41 25.8906C49.3445 26.7877 50.0833 27.8683 50.5801 29.0646C51.102 30.3221 51.3645 31.672 51.3518 33.0335C51.3629 34.4023 51.1005 35.7595 50.5801 37.0256C50.0825 38.2333 49.3441 39.327 48.41 40.2401C47.476 41.1548 46.3695 41.8747 45.1548 42.358C43.9096 42.8489 42.5824 43.099 41.2439 43.0949C39.8921 43.1006 38.5514 42.8506 37.2925 42.358C36.0822 41.8827 34.978 41.1728 34.0431 40.2691C33.109 39.3561 32.3706 38.2623 31.873 37.0546C31.3525 35.7885 31.0902 34.4313 31.1012 33.0625C31.1107 31.9459 31.2867 30.8371 31.6234 29.7725C32.0292 28.5349 32.6872 27.3949 33.5557 26.4244C34.4965 25.3253 35.6916 24.4728 37.0372 23.941C38.3666 23.4021 39.7863 23.1205 41.2207 23.1112C42.5654 23.0917 43.9013 23.3321 45.1548 23.8191ZM43.9943 39.9268C44.8604 39.5722 45.6488 39.0519 46.3153 38.3949C46.9959 37.7184 47.5293 36.9084 47.882 36.0159C48.2653 35.0683 48.4624 34.0557 48.4622 33.0335C48.4629 32.0187 48.2658 31.0136 47.882 30.0742C47.526 29.2005 46.9925 28.4101 46.3153 27.7532C45.6433 27.109 44.8559 26.5972 43.9943 26.2446C42.2805 25.5463 40.367 25.5173 38.6328 26.1633C37.8632 26.4649 37.1449 26.8838 36.5033 27.4051C35.7884 28.0297 35.1978 28.7837 34.7626 29.6274C34.2144 30.6856 33.9429 31.8653 33.9734 33.0567C33.9674 34.3828 34.2988 35.6887 34.9367 36.8515C35.552 38.0108 36.5051 38.9558 37.6696 39.5612C38.7675 40.1637 39.9975 40.4846 41.2497 40.4954C42.1931 40.4881 43.1257 40.2949 43.9943 39.9268Z" fill="#37474F"/>
<path d="M66.885 41.9808C65.4344 42.9092 64.9354 43.1065 63.4384 43.1065C62.5906 43.1539 61.7421 43.0287 60.9442 42.7384C60.1462 42.4482 59.4156 41.999 58.7964 41.418C57.6668 40.3001 57.1001 38.7063 57.0963 36.6368V25.9834H52.9823V23.5058H57.1253V17.4074H60.1077V23.5058H66.885V25.9834H60.1077V36.4279C60.0445 37.4669 60.3902 38.4894 61.0709 39.2769C61.4008 39.619 61.7993 39.8875 62.2404 40.0645C62.6814 40.2415 63.155 40.3231 63.6298 40.3039C64.1941 40.2892 64.7515 40.1773 65.2777 39.9732C65.8493 39.7722 66.3902 39.4929 66.885 39.1434V41.9808Z" fill="#37474F"/>
<path d="M88.5689 33.6544H72.1885C72.248 34.4609 72.4178 35.2556 72.6934 36.016C72.9792 36.8219 73.4186 37.5648 73.9873 38.2035C74.6001 38.885 75.3364 39.4441 76.1574 39.8514C77.042 40.2919 78.0183 40.5166 79.0064 40.5071C80.3564 40.5335 81.6881 40.1925 82.8593 39.5206C83.9792 38.865 84.6696 38.4414 85.3195 37.0256H88.1453C87.4962 38.8617 86.2762 40.4417 84.6638 41.5341C82.983 42.6043 81.0216 43.1496 79.0296 43.1008C77.7878 43.1008 76.5579 42.8584 75.4089 42.3871C74.2426 41.9164 73.1771 41.2271 72.2698 40.3562C71.3385 39.4523 70.6072 38.3631 70.1229 37.159C69.5972 35.87 69.3329 34.4894 69.3453 33.0973C69.3541 31.9541 69.53 30.8183 69.8676 29.7261C70.2713 28.469 70.9312 27.3093 71.8056 26.32C72.7304 25.2188 73.9149 24.3653 75.2522 23.8366C76.5115 23.3158 77.8585 23.0401 79.2211 23.0242C80.4472 23.0166 81.6631 23.2472 82.8012 23.7031C83.9126 24.146 84.9216 24.8114 85.7663 25.6586C86.6338 26.5341 87.3183 27.5736 87.7798 28.7165C88.2775 29.9361 88.5527 31.2351 88.5921 32.5519L88.5689 33.6544ZM76.5926 26.1402C75.5236 26.5172 74.5743 27.1721 73.8422 28.0376C73.0032 28.9988 72.4645 30.1851 72.293 31.4494H85.5864C85.4409 30.3416 85.0439 29.2818 84.4259 28.3509C83.8657 27.4575 83.0599 26.7443 82.105 26.2968C81.1976 25.8676 80.2074 25.6418 79.2037 25.6353C78.312 25.6634 77.4305 25.8338 76.5926 26.1402Z" fill="#37474F"/>
<path d="M94.5339 27.6719C94.6581 27.2959 94.9247 26.9834 95.2766 26.8016C95.332 26.7418 95.3994 26.6944 95.4744 26.6624C95.5494 26.6304 95.6303 26.6145 95.7118 26.6159H95.8394C95.9583 26.6173 96.0756 26.6427 96.1844 26.6906C96.2932 26.7385 96.3912 26.8079 96.4725 26.8946C96.5538 26.9813 96.6167 27.0836 96.6575 27.1952C96.6983 27.3069 96.7161 27.4256 96.7098 27.5443V27.6081C96.0889 33.7007 95.7756 37.4723 95.7756 39.5496C95.7571 40.0264 95.7784 40.5038 95.8394 40.977C95.8386 40.9851 95.8395 40.9933 95.8421 41.001C95.8446 41.0087 95.8487 41.0158 95.8542 41.0218C95.8597 41.0279 95.8664 41.0327 95.8738 41.0359C95.8813 41.0392 95.8893 41.0409 95.8974 41.0408C96.0889 41.0408 96.5821 40.3561 97.3945 39.2363C97.3945 39.1724 97.3945 39.1724 97.4525 39.1144C98.2648 37.4955 99.2571 35.3196 100.441 32.7665C100.499 32.6447 100.499 32.5228 100.563 32.459C100.626 32.3952 100.626 32.3313 100.626 32.2733C101.125 31.2173 101.619 30.7182 102.054 30.7182C102.187 30.7321 102.315 30.7736 102.431 30.8401C103.359 31.2173 103.673 33.5789 103.986 35.8186C104.085 36.8628 104.25 37.8996 104.479 38.9229C106.098 35.0063 107.961 28.229 109.081 23.941C109.266 23.3201 109.394 22.8211 109.458 22.6934C109.506 22.5674 109.591 22.4586 109.702 22.3811C109.812 22.3036 109.944 22.2608 110.079 22.2582H110.201C110.329 22.3207 110.438 22.4179 110.515 22.5388C110.592 22.6597 110.634 22.7997 110.636 22.9429V23.0706C110.482 23.4766 110.352 23.8912 110.247 24.3123C109.626 26.8016 106.516 40.1705 104.444 40.977C104.328 41.0289 104.2 41.0508 104.073 41.0408C103.702 41.0408 103.452 40.8552 103.267 40.3561C102.884 39.0994 102.633 37.8062 102.518 36.4975C102.269 34.7568 102.019 32.958 101.775 32.5228C101.778 32.6085 101.756 32.6931 101.712 32.7665C101.712 32.8303 101.648 32.8303 101.648 32.8942C101.648 32.958 101.584 33.1437 101.526 33.2655C100.406 35.8186 99.3499 37.9945 98.4157 39.6482C98.4157 39.7701 98.4157 39.8339 98.3519 39.8977L98.1662 40.1473C97.0057 42.3232 95.9265 43.6287 95.1199 43.6287H94.9923C94.1857 43.5011 93.6867 41.946 93.6867 38.4645C93.7583 34.9321 94.0081 31.4055 94.4352 27.8982C94.47 27.7938 94.47 27.73 94.5339 27.6719Z" fill="#37474F"/>
<path d="M122.2 41.7255C121.393 41.5979 120.836 40.2923 120.459 38.4878C120.048 35.9771 119.778 33.4451 119.653 30.9039C119.653 29.5984 119.531 29.0994 119.403 29.0994H119.281C119.281 29.1078 119.28 29.1161 119.277 29.1238C119.273 29.1315 119.269 29.1386 119.263 29.1445C119.257 29.1504 119.25 29.1551 119.242 29.1583C119.234 29.1615 119.226 29.1632 119.218 29.1632C116.978 31.2753 115.736 34.5131 114.367 37.246L113.148 39.7933C113.006 39.9324 112.836 40.0393 112.649 40.1067C112.566 40.1138 112.482 40.1044 112.403 40.0791C112.323 40.0538 112.25 40.0129 112.186 39.959C112.122 39.9051 112.07 39.8391 112.032 39.7649C111.994 39.6906 111.971 39.6096 111.964 39.5264L111.901 38.0932C111.901 34.9831 112.527 29.14 113.398 23.0474C114.268 17.2449 115.446 11.1697 116.751 7.18925C117.622 4.57814 118.62 3.02308 119.554 2.40221C119.839 2.18034 120.185 2.05078 120.546 2.03085L120.981 2.08888C121.215 2.17987 121.425 2.32191 121.597 2.50463C121.769 2.68734 121.897 2.9061 121.974 3.14493C122.204 3.8485 122.31 4.58675 122.287 5.32666C122.245 6.73229 122.05 8.12921 121.707 9.49283C120.817 12.7374 119.757 15.9331 118.533 19.0669C117.105 22.7341 115.55 26.1575 114.552 28.142C114.181 30.9446 113.931 33.5557 113.81 35.6852C114.866 33.5092 116.606 29.8827 118.411 28.287C118.636 28.0393 118.911 27.8416 119.218 27.7068L119.531 27.6488C119.794 27.6744 120.048 27.7597 120.274 27.8983C120.56 28.0949 120.778 28.3772 120.894 28.7048C121.176 29.3064 121.305 29.9679 121.272 30.6312C121.393 32.7433 121.707 40.333 122.577 40.4548C122.949 40.4548 123.157 40.7681 123.157 41.1395C123.104 41.3108 122.997 41.4601 122.851 41.5649C122.706 41.6696 122.53 41.724 122.351 41.7197L122.2 41.7255ZM117.349 18.6549C118.612 15.5767 119.672 12.4192 120.523 9.2027C120.838 7.76959 121.046 6.31492 121.144 4.85085C121.144 4.27061 121.022 3.85283 120.836 3.85283C120.651 3.85283 120.337 4.16616 119.902 4.78703C119.282 5.77457 118.8 6.84249 118.469 7.96098C117.156 12.4483 116.138 17.0169 115.423 21.6374L115.051 24.2485C115.8 22.5716 116.63 20.6452 117.349 18.6549Z" fill="#37474F"/>
<path d="M128.293 39.6077C127.364 39.422 126.801 38.3021 126.801 35.8767C126.862 33.4065 127.175 30.9489 127.736 28.5424C127.857 28.0433 128.107 27.4863 128.67 27.4863L128.913 27.5443C129.169 27.6067 129.392 27.7618 129.54 27.9795C129.659 28.1499 129.724 28.3521 129.726 28.5598L129.79 28.8673C129.79 28.9492 129.774 29.0304 129.741 29.1054C129.708 29.1804 129.659 29.2476 129.598 29.3025C129.127 31.4523 128.836 33.6378 128.728 35.8361C128.73 36.2935 128.772 36.7498 128.855 37.1996C128.977 37.5768 129.163 37.7799 129.436 37.7799C131.176 37.7799 136.027 30.5036 136.341 30.0684L137.147 29.0124C137.194 28.9386 137.258 28.8774 137.334 28.834C137.41 28.7905 137.495 28.7661 137.582 28.7628C137.649 28.7545 137.717 28.7611 137.782 28.7822C137.846 28.8033 137.905 28.8383 137.954 28.8847C138.042 28.9373 138.116 29.0099 138.17 29.0967C138.225 29.1834 138.258 29.2817 138.267 29.3837L138.139 29.697L137.397 30.8169C136.091 32.6157 131.426 39.6425 128.629 39.6425L128.293 39.6077ZM129.291 23.941C129.041 23.7155 128.843 23.4383 128.71 23.1287V22.943C128.715 22.7893 128.759 22.6395 128.838 22.5078C128.961 22.3472 129.138 22.2376 129.337 22.2003C129.576 22.2017 129.81 22.2657 130.016 22.3859C130.136 22.4241 130.24 22.5028 130.308 22.6086C130.377 22.7144 130.407 22.8408 130.393 22.9662L130.329 23.2157L130.265 23.2795L130.329 23.529C130.319 23.6724 130.252 23.8059 130.144 23.9004C130.007 24.0233 129.828 24.0897 129.645 24.0861C129.518 24.0626 129.397 24.0132 129.291 23.941Z" fill="#37474F"/>
<path d="M138.366 45.1432C136.938 45.0156 136.004 43.153 136.004 38.5516C136.004 37.2461 136.132 35.7548 136.254 33.9502C136.788 28.3707 137.758 22.8416 139.155 17.4132C140.397 12.5623 141.888 8.01901 143.692 4.78704C145.062 2.23975 146.553 0.725309 147.795 0.185679C148.071 0.0722471 148.366 0.00935849 148.665 0C148.918 0.0122362 149.169 0.0531139 149.414 0.121852C149.914 0.385624 150.292 0.832709 150.47 1.36938C150.547 1.75141 150.588 2.14003 150.591 2.52988C150.526 4.25223 150.157 5.94949 149.501 7.54321C148.005 11.3091 146.302 14.9896 144.4 18.5679C142.161 22.7573 139.921 26.6159 138.679 28.4785C138.366 30.4688 138.099 32.3952 137.994 34.0721C137.809 36.1262 137.745 37.8031 137.745 39.1725C137.745 41.6617 138.058 42.9673 138.551 43.4025L138.865 43.5243C140.919 43.5243 146.327 35.4415 147.261 34.0721C148.503 32.3314 149.744 30.5326 150.928 29.0356C150.97 28.9577 151.033 28.8935 151.11 28.8503C151.187 28.8071 151.275 28.7868 151.363 28.7919C151.515 28.8025 151.663 28.8439 151.798 28.9137C151.94 29.0434 152.029 29.2212 152.048 29.4127L151.92 29.7841C150.679 31.3391 149.501 33.0799 148.317 34.7568C146.64 37.0778 141.412 45.1432 138.551 45.1432H138.366ZM143.28 17.9877C145.178 14.457 146.881 10.825 148.381 7.10802C148.439 6.85852 149.437 4.06173 149.437 2.50667C149.437 1.88 149.309 1.50864 148.857 1.50864L148.549 1.57247C148.112 1.78838 147.718 2.08349 147.389 2.44284C146.526 3.31443 145.812 4.32205 145.276 5.42531C143.6 8.53543 142.044 13.0149 140.861 17.802C140.24 20.2854 139.7 22.8385 139.242 25.3452C140.356 23.3201 141.847 20.709 143.28 17.9877Z" fill="#37474F"/>
<path d="M150.365 29.9059C151.671 28.0433 152.686 27.1091 153.353 26.9235C153.538 26.85 153.735 26.8087 153.934 26.8016C154.514 26.8016 154.804 27.173 154.932 27.73C154.983 27.891 155.003 28.0605 154.99 28.229C154.979 28.3751 154.96 28.5204 154.932 28.6642C154.883 28.9916 154.777 29.3078 154.618 29.5984C154.285 30.2543 153.812 30.8286 153.231 31.28C152.65 31.7314 151.977 32.0488 151.259 32.2095C150.729 33.5148 150.434 34.9037 150.388 36.3119C150.387 36.759 150.472 37.2023 150.638 37.6174C150.699 37.7154 150.785 37.7958 150.887 37.8508C150.988 37.9057 151.103 37.9333 151.218 37.9307H151.34C151.839 37.9307 152.5 37.5594 153.516 36.8747L153.58 36.8109C155.257 35.4415 157.496 33.0799 160.357 29.227C160.485 29.0832 160.664 28.9939 160.856 28.9775C160.927 28.9814 160.997 28.9999 161.061 29.0319C161.125 29.0638 161.181 29.1085 161.227 29.1632C161.37 29.2923 161.459 29.4704 161.477 29.6622C161.477 29.7841 161.413 29.8479 161.349 29.9698C158.448 33.8284 156.127 36.3119 154.386 37.7451L154.015 38.0526C153.335 38.5431 152.606 38.9612 151.839 39.3001C151.498 39.4155 151.142 39.4781 150.783 39.4858C150.314 39.4761 149.859 39.3243 149.477 39.0506C148.906 38.5099 148.552 37.7797 148.479 36.9965L148.416 36.3757C148.499 34.819 148.836 33.2863 149.414 31.8381C149.696 31.1777 150.014 30.5327 150.365 29.9059ZM153.475 29.0123C153.539 28.8905 153.603 28.7048 153.661 28.5772C153.052 29.1431 152.529 29.7939 152.106 30.5094V30.5674C152.707 30.197 153.184 29.6555 153.475 29.0123Z" fill="#37474F"/>
</svg>
